<?xml version="1.0" standalone="no"?>
<!DOCTYPE svg PUBLIC "-//W3C//DTD SVG 20010904//EN"
 "http://www.w3.org/TR/2001/REC-SVG-20010904/DTD/svg10.dtd">
<svg version="1.0" xmlns="http://www.w3.org/2000/svg"
 width="1424.000000pt" height="1424.000000pt" viewBox="0 0 1424.000000 1424.000000"
 preserveAspectRatio="xMidYMid meet">
<metadata>
Created by potrace 1.14, written by Peter Selinger 2001-2017
</metadata>
<g transform="translate(0.000000,1424.000000) scale(0.100000,-0.100000)"
fill="#000000" stroke="none">
<path d="M6240 12369 c-85 -4 -200 -12 -255 -18 -55 -6 -141 -14 -191 -18 -68
-6 -97 -13 -113 -27 -11 -10 -27 -16 -36 -12 -19 7 -104 -20 -128 -42 -9 -8
-20 -12 -23 -9 -4 3 -28 -5 -53 -18 -58 -29 -144 -51 -235 -59 -53 -5 -91 -18
-170 -55 -55 -27 -130 -57 -166 -67 -76 -21 -192 -89 -289 -171 -38 -32 -108
-89 -156 -128 -48 -38 -114 -93 -148 -120 -34 -28 -112 -88 -172 -133 -61 -45
-118 -94 -127 -109 -9 -16 -28 -41 -42 -58 -14 -16 -26 -34 -26 -39 0 -5 -15
-24 -34 -42 -35 -34 -126 -150 -126 -160 0 -7 -48 -64 -98 -119 -16 -16 -41
-52 -57 -80 -15 -27 -38 -62 -51 -77 -12 -15 -25 -41 -29 -57 -3 -16 -13 -32
-21 -35 -12 -4 -12 -10 -3 -28 7 -13 15 -30 19 -38 4 -8 16 -20 27 -25 12 -6
27 -16 34 -22 31 -25 47 -18 95 47 115 155 181 223 297 305 31 22 95 67 141
101 47 34 109 71 138 83 29 12 62 27 73 33 11 6 47 27 80 46 114 66 297 153
378 181 138 48 152 57 229 143 111 124 145 153 245 208 51 28 95 56 98 61 4 5
11 7 16 4 5 -4 44 6 87 21 141 51 422 43 510 -14 12 -8 22 -11 22 -6 0 4 10
-2 23 -13 12 -11 47 -36 77 -55 161 -102 250 -265 250 -457 0 -38 5 -74 13
-83 25 -33 91 -56 179 -62 48 -3 99 -11 113 -16 14 -6 102 -10 195 -10 133 0
186 -4 251 -20 45 -10 86 -25 90 -31 4 -7 14 -9 23 -6 9 4 16 2 16 -3 0 -6 7
-10 15 -10 9 0 37 -11 63 -24 26 -13 63 -27 82 -31 36 -7 68 -22 153 -69 26
-14 53 -26 59 -26 6 0 39 -27 75 -60 35 -33 69 -60 74 -60 6 0 31 -13 56 -30
24 -16 48 -30 52 -30 5 0 15 -7 22 -17 8 -9 32 -24 54 -34 22 -10 62 -35 90
-56 71 -55 88 -112 89 -303 l1 -145 -45 -83 c-25 -46 -63 -117 -85 -158 -22
-40 -65 -111 -96 -156 -31 -46 -66 -101 -79 -123 -13 -22 -49 -65 -79 -95 -31
-31 -67 -72 -81 -93 -14 -20 -30 -37 -36 -37 -7 0 -14 -7 -18 -15 -4 -12 -32
-15 -164 -15 -188 0 -202 -5 -181 -64 9 -24 28 -48 52 -65 91 -62 166 -118
222 -166 33 -28 76 -62 96 -77 112 -83 305 -321 376 -463 22 -44 55 -129 73
-190 18 -60 40 -126 50 -145 10 -19 32 -84 49 -144 30 -107 31 -112 31 -330 0
-122 -4 -236 -10 -255 -9 -31 -6 -38 22 -70 39 -44 169 -137 212 -150 42 -13
146 -20 146 -9 0 4 11 8 24 8 32 0 136 55 161 84 11 13 36 31 55 39 19 8 49
27 66 43 17 16 51 46 76 66 46 37 46 38 53 117 4 44 4 88 1 99 -4 11 -29 37
-56 58 -35 27 -50 46 -54 69 -4 18 -13 38 -21 45 -20 16 -19 36 3 59 9 10 30
35 46 56 16 21 49 46 75 58 25 11 57 28 70 38 13 11 31 19 40 19 15 0 91 87
91 103 0 13 117 120 165 151 95 62 105 66 150 71 25 2 79 9 120 16 68 12 80
11 128 -6 129 -46 287 -198 287 -275 0 -31 18 -107 42 -175 6 -16 13 -43 15
-60 7 -39 40 -75 71 -75 51 0 81 88 51 153 -10 21 -6 34 26 91 20 36 34 69 31
74 -2 4 -7 35 -10 67 -4 33 -11 101 -17 150 -21 172 -23 591 -4 769 10 91 14
185 11 216 -4 30 -32 134 -63 230 -46 143 -79 222 -185 433 -70 142 -147 306
-171 365 -42 104 -87 175 -151 238 -17 16 -87 95 -155 174 -101 117 -132 161
-166 234 -30 64 -56 104 -88 133 -49 45 -136 160 -207 272 -28 45 -66 88 -101
116 -32 25 -60 45 -62 45 -6 0 -156 100 -182 121 -9 8 -29 26 -43 40 -34 33
-158 114 -192 124 -14 4 -61 26 -105 50 -44 24 -107 52 -140 63 -34 11 -85 32
-115 47 -48 25 -208 74 -437 136 -39 10 -83 23 -98 29 -14 5 -37 10 -51 10
-14 0 -60 11 -102 24 -42 13 -113 31 -157 41 -44 10 -85 21 -91 26 -6 5 -56
15 -112 24 -110 16 -529 18 -832 4z"/>
<path d="M3454 10113 c-3 -10 -10 -29 -16 -43 -5 -14 -28 -79 -50 -145 -21
-66 -44 -124 -49 -129 -5 -6 -9 -18 -9 -28 0 -10 -4 -26 -9 -36 -38 -76 -73
-221 -67 -273 6 -44 -11 -142 -49 -290 -8 -30 -15 -81 -15 -112 0 -31 -4 -59
-10 -62 -5 -3 -9 -32 -9 -63 l2 -57 7 45 c4 25 17 68 30 95 53 118 90 245 90
313 0 37 7 99 16 137 9 39 18 84 21 100 3 17 9 35 13 40 4 6 13 28 19 50 16
52 23 69 54 136 29 60 34 108 15 139 -10 15 -9 26 6 57 10 21 20 62 22 91 4
52 -2 68 -12 35z"/>
<path d="M5640 8849 c-321 -14 -476 -32 -537 -64 -43 -23 -81 -18 -173 20 -78
33 -92 35 -190 35 -98 0 -108 -2 -128 -23 -12 -13 -22 -27 -22 -33 0 -5 -21
-22 -47 -39 -63 -41 -70 -55 -50 -98 12 -25 26 -37 47 -42 17 -4 30 -13 30
-22 0 -15 79 -103 93 -103 17 0 94 -40 107 -55 7 -8 19 -15 27 -15 8 0 40 -18
72 -40 31 -22 71 -42 89 -46 18 -4 35 -11 38 -15 3 -5 14 -9 24 -9 10 0 20 -4
22 -9 6 -17 154 -17 173 -1 10 8 47 26 84 40 56 21 66 29 69 51 2 20 -6 34
-30 54 -18 16 -25 26 -16 22 9 -3 31 1 48 9 17 9 76 20 133 26 109 10 207 2
332 -27 134 -31 149 -33 166 -25 8 5 54 11 100 14 122 7 156 19 174 63 20 48
19 82 -6 137 -15 34 -29 50 -55 61 -19 8 -38 24 -43 37 -15 37 -54 66 -102 77
-44 11 -232 33 -246 29 -4 -1 -87 -5 -183 -9z"/>
<path d="M3143 8818 c-6 -7 -16 -29 -22 -49 -7 -20 -26 -53 -42 -72 -17 -20
-49 -71 -72 -114 -39 -75 -40 -81 -38 -159 2 -50 -2 -84 -8 -89 -25 -15 -4
-140 28 -165 14 -11 45 -65 43 -74 -2 -5 4 -16 13 -26 8 -9 13 -19 9 -22 -5
-6 37 -101 102 -231 19 -38 32 -73 28 -78 -3 -5 0 -9 6 -9 7 0 10 -7 6 -15 -3
-8 -1 -15 5 -15 7 0 9 -10 5 -24 -3 -14 -1 -28 4 -31 20 -13 4 -278 -25 -410
-15 -66 -27 -127 -29 -135 -1 -8 -5 -22 -8 -30 -27 -69 -69 -208 -82 -265 -27
-128 -82 -455 -97 -575 -11 -90 -11 -339 0 -397 5 -26 15 -77 21 -113 7 -36
16 -78 21 -95 5 -16 25 -84 44 -150 20 -66 44 -149 55 -185 30 -102 143 -591
175 -755 8 -44 29 -125 46 -180 48 -155 77 -268 104 -410 14 -71 32 -157 41
-190 34 -132 52 -214 64 -290 15 -97 55 -224 106 -330 103 -217 330 -335 646
-335 125 0 206 -11 423 -55 130 -27 418 -65 489 -65 l44 0 6 -67 c4 -38 12
-115 18 -172 l11 -105 -35 -30 c-20 -17 -62 -40 -94 -50 -33 -11 -70 -25 -84
-32 -24 -12 -137 -54 -143 -53 -1 0 -15 -4 -30 -10 -16 -6 -36 -11 -45 -11
-16 0 -179 -40 -212 -53 -8 -3 -43 -13 -78 -22 -35 -9 -98 -34 -140 -54 -94
-46 -275 -95 -437 -116 -66 -9 -158 -24 -205 -34 -47 -11 -110 -22 -140 -26
-65 -7 -204 -47 -275 -78 -27 -12 -70 -39 -95 -60 -24 -21 -76 -53 -115 -71
-39 -18 -95 -49 -124 -69 -29 -21 -61 -37 -70 -37 -38 0 -130 -69 -254 -190
-72 -71 -177 -166 -232 -212 -128 -108 -239 -233 -332 -376 -63 -95 -133 -226
-133 -246 0 -4 -9 -25 -19 -49 -52 -113 -141 -388 -141 -436 l0 -21 1642 2
1642 3 16 70 c10 39 27 115 39 170 12 55 27 118 33 140 6 22 12 111 13 198 2
135 5 160 20 177 24 27 57 25 83 -3 19 -21 22 -34 22 -120 0 -84 3 -100 20
-117 25 -25 45 -25 68 -2 15 15 20 41 26 122 5 87 10 108 28 127 12 13 31 23
43 23 50 0 79 -76 93 -250 5 -64 13 -95 32 -125 23 -37 24 -51 28 -210 2 -94
8 -178 13 -187 14 -26 75 -24 89 1 16 31 13 363 -4 403 -8 18 -18 56 -24 83
-6 28 -18 82 -27 120 -9 39 -21 97 -26 130 -6 33 -16 72 -23 86 -17 34 -52
182 -72 304 -9 55 -27 133 -40 173 -13 40 -24 81 -24 90 0 25 41 62 68 62 18
0 24 -10 37 -57 9 -32 31 -99 50 -148 18 -50 38 -119 45 -155 6 -36 20 -92 30
-125 10 -33 28 -98 39 -145 36 -148 68 -244 85 -255 62 -39 71 111 17 290 -45
147 -73 233 -109 335 -17 47 -44 126 -60 175 -17 50 -42 122 -56 160 -14 39
-26 79 -26 90 0 11 -11 33 -25 49 -38 44 -28 66 19 45 65 -30 76 56 16 126 -9
11 -25 47 -35 80 -10 33 -21 64 -26 69 -5 6 -9 16 -9 23 0 7 -11 30 -23 51
-13 20 -39 78 -57 127 -18 50 -39 99 -47 111 -7 11 -10 23 -7 26 3 3 -1 35
-10 70 -27 113 -26 126 6 154 16 13 41 24 55 24 42 0 155 51 215 97 31 23 59
43 63 43 4 0 24 15 46 33 66 57 275 155 431 202 79 24 224 68 323 99 98 30
183 52 187 50 4 -3 8 0 8 6 0 6 4 9 8 6 22 -13 209 65 266 112 16 13 52 35 80
49 28 14 66 39 85 56 19 16 81 51 138 78 57 26 118 59 136 72 17 14 52 35 77
47 24 13 72 49 105 80 33 32 71 61 85 65 57 17 185 104 254 171 22 22 56 49
74 60 17 10 34 25 37 34 15 43 161 124 214 118 22 -3 26 -7 23 -33 -2 -16 -14
-54 -28 -84 -30 -67 -30 -96 1 -126 26 -27 54 -31 86 -14 22 11 89 141 89 172
0 23 102 232 121 247 3 3 9 25 13 50 4 24 11 49 15 55 16 19 61 163 61 194 0
16 4 32 9 35 5 3 12 26 15 51 4 24 11 47 16 50 4 3 11 23 15 45 14 82 69 114
115 65 20 -21 22 -31 17 -80 -3 -31 -10 -62 -15 -68 -6 -7 -13 -30 -17 -52 -3
-22 -10 -49 -15 -60 -22 -49 -42 -240 -51 -482 -8 -218 -8 -267 4 -290 8 -16
11 -39 7 -53 -4 -19 3 -39 30 -82 20 -31 42 -71 49 -90 7 -18 22 -55 33 -83
11 -27 24 -72 28 -100 5 -27 42 -125 84 -216 41 -92 78 -180 82 -195 4 -16 20
-57 36 -92 15 -34 28 -65 28 -69 0 -4 18 -35 41 -69 42 -65 64 -80 99 -69 27
8 33 41 20 99 -6 27 -8 51 -5 54 3 3 17 0 31 -7 32 -14 335 -216 401 -266 25
-19 51 -35 58 -35 6 0 22 -11 35 -25 13 -14 28 -25 34 -25 19 -1 113 -93 132
-130 13 -26 17 -53 15 -105 -5 -138 -66 -301 -194 -525 -11 -19 -36 -64 -55
-100 -18 -36 -37 -69 -42 -75 -6 -8 -76 -141 -149 -283 -25 -49 -164 -286
-191 -327 -66 -97 -200 -305 -200 -310 0 -3 -8 -13 -17 -24 -10 -10 -40 -48
-68 -85 -88 -117 -129 -171 -136 -176 -3 -3 -43 -50 -89 -105 -46 -55 -85
-102 -89 -105 -3 -3 -19 -20 -35 -38 l-30 -32 2727 0 2727 0 0 300 c0 204 -3
300 -11 300 -5 0 -27 13 -47 29 -36 29 -83 54 -192 105 -51 24 -59 32 -114
126 -32 55 -62 100 -66 100 -4 0 -12 11 -18 24 -15 33 -164 119 -232 134 -30
7 -75 17 -100 23 -116 29 -130 26 -239 -40 -55 -34 -105 -61 -109 -61 -5 0
-22 -10 -38 -22 -25 -20 -38 -23 -117 -21 -106 3 -160 25 -252 102 -45 39 -70
71 -105 138 -37 71 -52 90 -85 107 -22 12 -42 24 -45 27 -3 3 -38 11 -78 17
-40 7 -96 23 -124 37 -29 14 -58 25 -65 25 -15 0 -174 76 -308 148 -95 50
-183 78 -278 86 -50 4 -60 9 -84 38 -14 18 -99 104 -187 190 -171 168 -202
189 -379 262 -134 55 -173 74 -297 144 -99 55 -123 74 -175 136 -33 39 -121
132 -195 206 -142 142 -165 158 -340 231 -141 58 -245 88 -505 144 -143 32
-263 60 -267 63 -17 18 -100 223 -108 267 -4 28 -18 74 -31 102 -12 29 -20 55
-17 58 3 3 79 25 169 49 127 33 202 61 332 120 93 42 238 101 323 131 97 34
169 65 193 84 79 63 188 195 231 281 23 47 75 131 116 187 77 107 116 199 92
215 -19 11 -28 10 -45 -8 -12 -11 -18 -12 -23 -4 -5 9 -16 7 -40 -5 -17 -9
-34 -15 -36 -12 -7 6 32 89 101 216 78 143 115 262 116 376 0 44 3 97 7 119 7
37 11 40 102 85 73 35 97 52 102 71 4 14 16 57 28 95 12 39 24 94 27 123 6 50
-10 203 -27 269 -4 18 -59 98 -121 178 l-114 146 -85 41 c-47 22 -121 53 -165
69 -73 26 -91 29 -215 28 -74 0 -165 -3 -202 -8 -70 -7 -75 -5 -58 29 6 11 14
28 19 39 5 10 13 36 17 57 4 22 13 48 20 59 8 11 14 27 14 36 0 9 9 38 21 65
33 79 50 117 65 148 8 16 14 37 14 46 0 10 6 23 13 29 8 6 20 36 27 66 11 44
11 60 1 78 -7 13 -11 32 -9 42 2 10 -3 20 -9 22 -7 3 -13 -2 -13 -11 0 -10 -9
-16 -23 -16 -28 0 -59 -32 -77 -80 -8 -19 -20 -44 -27 -55 -7 -11 -13 -28 -13
-37 0 -10 -4 -26 -9 -36 -23 -41 -61 -132 -81 -192 -12 -36 -25 -69 -30 -75
-4 -5 -11 -27 -14 -49 -4 -21 -11 -46 -16 -55 -33 -66 -52 -134 -49 -174 2
-28 -45 -150 -81 -207 -5 -8 -32 -52 -61 -98 -55 -89 -158 -200 -254 -274 -95
-72 -169 -96 -245 -79 -39 9 -45 7 -101 -31 -33 -22 -58 -45 -56 -51 2 -7 -4
-37 -15 -67 -10 -30 -16 -61 -13 -68 3 -8 2 -19 -2 -25 -4 -7 -8 -18 -9 -27
-1 -8 -9 -42 -18 -75 -10 -33 -19 -71 -22 -84 -3 -14 -7 -28 -10 -33 -3 -5 -7
-22 -9 -38 -2 -16 -13 -47 -24 -68 -11 -22 -23 -59 -26 -81 -3 -23 -16 -64
-31 -92 -22 -44 -25 -65 -28 -164 -2 -123 -15 -155 -61 -155 -30 0 -67 41 -55
60 17 26 11 60 -15 85 -47 48 -110 21 -141 -62 -12 -30 -41 -70 -85 -113 -37
-37 -78 -84 -92 -106 -13 -21 -48 -65 -76 -97 -28 -32 -51 -62 -51 -66 0 -8
-45 -57 -210 -226 -83 -85 -114 -110 -202 -157 -56 -31 -129 -63 -162 -72 -34
-8 -70 -26 -86 -41 -15 -14 -38 -28 -53 -30 -39 -8 -158 -63 -197 -93 -45 -34
-132 -75 -204 -96 -32 -9 -92 -34 -134 -54 -42 -21 -85 -36 -94 -34 -10 2 -18
-2 -18 -8 0 -6 -6 -10 -12 -7 -7 2 -26 -5 -42 -16 -56 -39 -164 -86 -286 -123
-74 -23 -108 -27 -272 -31 -164 -5 -189 -8 -207 -24 -11 -11 -23 -19 -26 -19
-4 0 -50 -27 -103 -59 -83 -50 -259 -141 -275 -141 -3 0 -34 -18 -70 -39 -35
-22 -80 -46 -99 -54 -20 -8 -39 -20 -42 -26 -12 -19 -99 -59 -167 -76 -85 -22
-291 -25 -379 -5 -36 8 -67 17 -70 21 -9 13 -196 29 -332 29 -117 0 -141 3
-202 25 -38 14 -75 25 -83 25 -8 0 -24 9 -36 21 -12 11 -35 28 -52 36 -49 25
-173 122 -220 171 -59 61 -96 135 -134 263 -23 79 -31 127 -31 185 0 49 -7
100 -19 134 -15 46 -16 61 -6 90 6 19 11 53 9 75 -5 82 -14 151 -24 185 -5 19
-10 54 -10 77 0 27 -6 49 -18 60 -31 32 -63 111 -69 171 -6 77 -11 88 -25 74
-22 -22 -84 -14 -117 14 -30 25 -31 28 -31 115 0 57 5 103 15 126 17 39 20
164 6 178 -6 6 -13 56 -17 113 -6 89 -5 107 12 137 15 29 22 33 44 28 51 -12
64 -36 76 -147 9 -77 19 -119 42 -167 40 -85 47 -118 27 -125 -22 -9 -18 -28
8 -39 12 -6 22 -17 23 -25 0 -8 8 -29 17 -47 9 -18 17 -45 17 -60 0 -41 47
-217 68 -255 26 -46 48 -57 69 -35 16 16 16 19 -1 65 -30 78 -66 215 -66 250
0 18 -7 46 -15 63 -14 26 -14 31 -1 44 8 8 18 15 21 15 9 0 44 43 45 55 0 6
12 21 26 34 l26 25 426 2 c404 2 633 -7 656 -25 6 -4 36 -9 66 -10 30 -1 73
-6 96 -11 45 -10 267 -4 329 10 45 10 93 6 148 -11 27 -9 41 -9 49 -1 18 18
-59 44 -137 47 -38 1 -77 5 -85 8 -8 4 -58 9 -110 12 -52 3 -160 10 -240 16
-235 17 -462 21 -660 10 -126 -6 -187 -6 -191 1 -4 7 -13 7 -25 0 -25 -13 -68
-6 -129 23 -57 27 -175 65 -202 65 -10 0 -30 14 -45 30 -17 19 -32 28 -42 24
-9 -3 -16 -1 -16 5 0 6 -12 11 -28 11 -26 0 -69 22 -84 44 -4 6 -14 4 -26 -7
-10 -9 -22 -17 -25 -17 -16 0 -5 72 18 124 14 31 25 67 25 81 0 34 43 112 84
151 19 19 36 44 38 56 2 13 13 28 26 33 13 6 25 20 29 33 3 12 9 22 13 22 8 0
24 50 25 76 0 6 5 18 11 25 46 61 106 289 76 289 -4 0 -14 17 -21 37 -8 20
-25 48 -38 61 l-25 25 21 20 c19 19 25 20 83 10 48 -8 66 -8 78 2 26 21 66 26
228 26 149 1 160 -1 209 -25 28 -14 54 -26 58 -26 4 0 5 19 1 42 -16 98 -124
152 -342 172 -123 12 -279 -23 -344 -76 -36 -29 -92 -38 -106 -17 -4 6 -20 8
-39 5 -21 -4 -35 -2 -37 5 -3 8 -24 9 -78 1 -49 -6 -82 -6 -94 0 -10 6 -32 14
-49 19 l-31 9 31 -33 c17 -17 40 -50 51 -72 11 -22 43 -62 71 -90 l51 -49 0
-72 c0 -75 -13 -129 -61 -254 -16 -41 -36 -100 -45 -130 -9 -30 -21 -61 -27
-69 -10 -12 -33 -69 -40 -96 -1 -5 -9 -16 -19 -25 -22 -20 -52 -117 -49 -160
1 -31 -1 -36 -23 -38 -28 -2 -76 51 -76 85 0 17 -13 64 -55 193 -8 25 -22 72
-30 105 -8 33 -21 83 -29 110 -29 100 -47 241 -47 370 0 123 8 252 17 267 4 7
38 205 48 283 4 28 13 73 21 100 8 28 26 102 40 165 15 63 33 129 41 147 8 17
14 34 14 39 0 4 7 15 16 25 8 9 16 24 18 32 1 8 8 22 15 31 9 10 9 16 3 16 -6
0 -2 16 10 36 l21 35 24 -22 c13 -13 22 -28 19 -35 -2 -6 7 -17 22 -24 24 -11
29 -9 54 22 15 18 28 37 28 41 0 5 14 22 30 39 17 16 30 33 30 38 0 4 15 24
34 45 l34 37 -19 34 c-33 59 -18 125 25 108 9 -3 16 -1 16 5 0 6 8 11 19 11
11 0 21 9 24 21 3 12 10 18 16 15 5 -4 13 -1 16 5 4 5 13 8 20 5 7 -2 33 25
62 67 65 94 83 129 83 167 0 29 -1 30 -46 30 -25 0 -44 3 -42 8 3 4 10 21 18
38 15 35 69 77 84 65 6 -4 33 -14 60 -21 49 -13 49 -13 73 16 89 110 118 206
82 271 -10 18 -17 33 -14 33 7 0 -55 101 -86 141 -16 20 -29 40 -29 44 0 10
-120 163 -155 197 -15 15 -47 37 -71 48 -24 12 -47 28 -52 35 -4 8 -36 24 -72
36 -36 12 -72 24 -80 27 -8 3 -19 4 -24 3 -4 -1 -29 5 -55 13 -45 15 -140 15
-189 0 -20 -6 -22 -4 -18 20 5 28 -5 34 -21 14z m157 -619 c0 -5 9 -9 20 -9
53 0 110 -55 110 -105 0 -70 -106 -89 -192 -35 -52 33 -68 66 -50 105 6 14 23
27 37 31 14 3 25 10 25 14 0 4 11 8 25 8 14 0 25 -4 25 -9z"/>
<path d="M9705 8261 c-33 -3 -71 -14 -85 -23 -13 -10 -32 -18 -41 -18 -15 0
-37 -13 -194 -116 -118 -77 -155 -122 -155 -188 0 -38 28 -76 55 -76 23 0 55
37 55 64 0 28 33 57 140 125 119 75 127 78 287 121 42 10 63 33 63 64 0 20
-36 57 -52 54 -7 0 -40 -4 -73 -7z"/>
<path d="M5285 8220 c-3 -6 -25 -19 -49 -29 -34 -16 -45 -27 -54 -58 -21 -71
4 -142 49 -143 23 0 53 -48 41 -63 -17 -22 -21 -57 -6 -57 17 0 18 -12 3 -27
-8 -8 6 -10 52 -6 35 3 67 11 71 17 4 7 15 3 31 -12 26 -25 37 -28 37 -10 0 6
7 20 16 30 13 13 14 21 5 31 -6 8 -8 17 -4 20 15 15 23 5 23 -27 0 -19 5 -38
10 -41 6 -4 8 -10 5 -15 -12 -20 29 -79 66 -95 72 -33 282 -8 336 40 10 9 29
24 42 34 19 14 25 28 27 67 1 27 6 67 11 89 8 38 10 40 49 43 36 3 48 -3 94
-40 90 -74 100 -77 240 -77 145 -1 176 4 156 25 -8 7 -16 17 -18 21 -3 8 -44
31 -153 87 -33 17 -67 35 -75 41 -19 13 -141 54 -160 55 -8 0 -44 9 -80 19
-65 19 -181 36 -360 52 -52 4 -149 15 -215 23 -142 18 -182 20 -190 6z m590
-176 c22 -9 57 -81 50 -104 -7 -23 -52 -60 -71 -60 -32 0 -52 37 -50 90 3 65
28 90 71 74z"/>
<path d="M9145 7592 c-15 -11 -35 -74 -35 -110 0 -27 5 -34 33 -45 31 -13 32
-13 44 14 13 32 41 49 77 49 36 0 34 33 -3 71 -22 22 -39 29 -68 29 -21 0 -43
-4 -48 -8z"/>
<path d="M8688 6548 c-43 -36 -48 -57 -48 -220 0 -145 2 -160 20 -178 11 -11
27 -20 35 -20 8 0 24 9 35 20 18 18 20 33 20 149 0 92 4 139 15 164 19 47 19
53 -5 77 -23 23 -49 26 -72 8z"/>
</g>
</svg>
